<svg width="84" height="50" viewBox="0 0 84 50" fill="none" xmlns="http://www.w3.org/2000/svg">
<path d="M0.71007 28.3609C1.47907 28.8429 2.10107 28.6989 2.58407 27.9269C4.60407 24.4679 7.31807 20.9109 10.7311 17.2589C14.1431 13.6059 17.7251 10.5309 21.4751 8.02787C30.8941 1.78187 39.0161 1.06187 45.8431 5.86487C49.3031 8.26987 51.1281 12.2599 51.3231 17.8369C45.3611 17.5459 39.3041 18.9899 33.1541 22.1589C30.4601 23.5069 28.5871 24.5639 27.5301 25.3319C25.1271 27.0629 23.8291 29.0349 23.6361 31.2439C23.2501 35.2839 24.6471 38.0209 27.8181 39.4639C30.6041 40.6169 33.9681 40.5709 37.9121 39.3189C41.9491 38.0719 45.5061 35.9099 48.5831 32.8299C51.6581 29.6599 53.3891 26.0069 53.7741 21.8719C53.8681 21.4889 53.9191 21.1039 53.9191 20.7189C61.2221 21.8719 67.0871 25.8619 71.5101 32.6849C74.0101 36.4349 75.6911 39.5599 76.5571 42.0589C74.7301 40.4239 72.0381 38.6959 68.4821 36.8679C67.7111 36.3869 67.1121 36.5569 66.6781 37.3739C66.2471 38.1899 66.4641 38.7949 67.3281 39.1759C72.9981 42.2529 76.4591 45.0889 77.7101 47.6849V47.9709C77.7101 48.9349 78.1421 49.3659 79.0081 49.2689C79.3921 49.2689 79.7291 49.1249 80.0181 48.8379C80.7861 48.6459 81.1211 48.1639 81.0271 47.3959C80.5461 42.4939 81.3641 37.6849 83.4781 32.9749C83.8611 32.1119 83.6441 31.5109 82.8301 31.1719C82.0121 30.8389 81.4601 31.0539 81.1721 31.8219C79.8231 34.6119 78.9591 37.3009 78.5761 39.8969C77.6131 37.5879 76.0281 34.7059 73.8181 31.2439C68.8191 23.5529 62.1851 19.1819 53.9201 18.1229C53.8211 11.4889 51.6121 6.63687 47.2861 3.56087C39.5951 -1.82313 30.5101 -1.10113 20.0331 5.72287C16.0911 8.31887 12.3911 11.5399 8.92907 15.3829C5.37107 19.2309 2.48807 22.9309 0.27807 26.4859C-0.20393 27.2589 -0.0589298 27.8809 0.71007 28.3609ZM51.1781 21.5859C50.7921 25.0459 49.2541 28.1719 46.5621 30.9569C43.8711 33.7459 40.7471 35.6669 37.1901 36.7249C33.8241 37.8779 31.0841 37.9759 28.9711 37.0129C26.8551 36.1489 25.9451 34.3239 26.2321 31.5339C26.4241 30.0919 27.3851 28.7449 29.1161 27.4959C29.9811 26.8259 31.7121 25.8169 34.3071 24.4689C40.1681 21.5869 45.7941 20.2889 51.1781 20.5749V21.5859Z" fill="#AC8F69"/>
</svg>
