<svg width="119" height="192" viewBox="0 0 119 192" fill="none" xmlns="http://www.w3.org/2000/svg">
<path d="M-52.2624 141.962C-28.7558 137.582 -8.69763 150.33 10.1398 114.166C3.79325 113.647 -9.26306 117.493 -19.7059 121.66C-17.7214 118.618 -9.6929 114.19 3.53489 109.033C-35.0462 103.957 -45.5751 126.701 -52.2624 141.962Z" fill="#AC8F69"/>
<path d="M14.12 173.877C20.4441 163.499 46.5492 152.175 22.2188 119.105C22.0191 122.827 23.4956 134.91 19.2796 141.829C19.0637 137.681 18.8677 123.103 14.0001 115.763C-5.10317 143.681 0.853976 136.371 14.12 173.877Z" fill="#AC8F69"/>
<path d="M86.8603 151.411C77.5071 140.927 73.9612 110.838 29.5428 110.839C33.82 113.467 46.4819 119.486 54.5883 128.693C49.9379 126.106 37.0516 119.869 22.7095 115.621C34.328 138.573 34.7099 142.77 86.8603 151.411Z" fill="#AC8F69"/>
<path d="M15.5503 83.0996C1.02993 40.6848 -5.15935 56.0933 -44.0438 24.6109C-46.5973 53.3473 -44.2871 87.608 3.52744 105.401C-1.33639 99.8768 -16.0439 87.353 -18.8185 69.2892C-12.2098 76.2379 -1.47119 94.8458 16.4639 103.788C23.1812 103.056 36.7167 90.2769 49.6233 74.1356C47.7773 84.0247 38.5964 96.7322 29.4117 107.624C52.5364 99.0465 80.8843 89.2941 72.3061 32.3049C60.886 45.2566 19.961 49.9223 15.5503 83.0996Z" fill="#AC8F69"/>
</svg>
