<svg width="112" height="203" viewBox="0 0 112 203" fill="none" xmlns="http://www.w3.org/2000/svg">
<path d="M14.7623 31.9839C28.4312 58.746 20.2299 87.4663 70.5312 97.2572C68.8909 89.4244 59.5961 75.0643 50.848 63.9678C55.2221 65.2733 63.4234 73.3672 74.3584 87.4663C66.7039 39.164 35.539 34.5949 14.7623 31.9839Z" fill="#AC8F69"/>
<path d="M0 123.367C14.7623 127.283 37.726 154.698 68.8909 113.576C64.3346 114.663 50.3013 120.756 40.4597 118.145C45.3805 116.404 62.8766 110.965 69.9844 102.479C29.5247 89.4245 40.4597 93.9936 0 123.367Z" fill="#AC8F69"/>
<path d="M53.0352 203C62.33 187.987 97.3222 172.974 81.4663 119.45C79.8261 125.542 77.0922 142.949 68.891 156.003C70.349 149.476 73.265 131.722 73.265 112.923C49.7545 135.116 44.8338 137.074 53.0352 203Z" fill="#AC8F69"/>
<path d="M109.897 92.6881C155.825 60.0514 135.048 58.0933 159.105 0C123.566 7.18006 83.1065 22.1929 78.7325 86.1608C83.6533 78.328 93.4948 56.1351 114.271 46.3441C108.257 56.7878 89.6675 76.3698 85.2935 101.174C88.574 109.006 108.804 120.756 132.861 130.547C120.286 131.852 101.696 125.325 85.2935 118.145C103.883 142.949 125.753 173.627 191.364 142.949C171.681 133.81 151.451 86.1608 109.897 92.6881Z" fill="#AC8F69"/>
</svg>
