<svg width="125" height="248" viewBox="0 0 125 248" fill="none" xmlns="http://www.w3.org/2000/svg">
<path d="M5.60278 218.697C14.2817 193.411 37.7289 180.911 12.9095 142.671C8.9107 148.561 5.46515 163.383 3.77024 175.839C1.90262 172.233 2.01396 161.983 4.27879 146.272C-21.9011 181.02 -5.56583 203.787 5.60278 218.697Z" fill="#AC8F69"/>
<path d="M73.2042 171.671C66.5877 159.804 69.9403 128.167 24.3658 133.636C27.8776 135.88 40.4484 141.095 44.8595 149.007C40.7047 146.933 26.4116 139.098 16.589 139.794C33.238 173.753 29.4044 163.931 73.2042 171.671Z" fill="#AC8F69"/>
<path d="M91.3899 88.5208C76.0387 91.8503 44.8072 78.7352 20.3539 121.958C25.2661 119.243 38.0944 110.236 51.5166 107.417C46.4386 110.518 33.275 119.623 21.2451 131.241C49.9759 132.571 54.27 134.51 91.3899 88.5208Z" fill="#AC8F69"/>
<path d="M-14.3418 120.303C-63.609 111.081 -52.0226 125.587 -104.065 146.092C-77.5081 164.398 -42.8978 181.012 0.740322 144.28C-7.31306 145.972 -27.5969 153.388 -46.7019 146.143C-36.3019 143.538 -12.2829 143.333 6.29297 130.804C9.27815 123.864 4.29528 103.658 -4.30587 82.2121C4.30078 89.4527 11.6117 105.382 17.1533 120.316C21.5382 93.0919 27.6551 60.138 -32.5226 37.1103C-26.2068 55.3534 -44.1977 97.7453 -14.3418 120.303Z" fill="#AC8F69"/>
</svg>
