<svg width="142" height="257" viewBox="0 0 142 257" fill="none" xmlns="http://www.w3.org/2000/svg">
<path d="M75.3759 34.9297C78.5239 64.6025 60.7011 88.3083 103.847 115.284C105.114 107.439 101.607 90.8199 97.4465 77.4203C101.037 80.187 105.759 90.6086 110.879 107.57C120.971 60.069 93.707 44.7434 75.3759 34.9297Z" fill="#AC8F69"/>
<path d="M29.1727 114.389C41.464 123.273 52.9961 156.859 96.5197 129.828C91.9089 129.215 76.7319 129.869 68.5377 123.946C73.7187 124.084 91.8735 125.267 101.482 119.93C68.6208 93.4308 77.1318 101.558 29.1727 114.389Z" fill="#AC8F69"/>
<path d="M49.9996 207.084C63.9583 196.474 101.739 195.009 106.087 139.749C102.398 144.813 93.67 159.976 81.4219 169.159C85.0962 163.627 94.1173 148.206 100.807 130.779C71.1149 142.986 65.8564 143.051 49.9996 207.084Z" fill="#AC8F69"/>
<path d="M141.966 125.057C196.155 111.145 177.592 101.937 220.565 56.6442C185.065 50.6537 142.216 50.1734 115.398 107.916C122.747 102.406 139.768 85.3349 162.512 83.6518C153.221 91.1931 129.02 102.731 116.138 124.168C116.392 132.596 130.965 150.687 149.782 168.324C137.66 165.059 122.75 152.393 110.099 139.9C118.506 169.509 127.863 205.731 199.601 200.639C184.607 185.163 182.809 133.793 141.966 125.057Z" fill="#AC8F69"/>
</svg>
