<svg width="998" height="993" viewBox="0 0 998 993" fill="none" xmlns="http://www.w3.org/2000/svg">
<path d="M506.647 113.749C463.793 212.569 365.661 255.366 453.265 416.81C471.189 394.416 489.714 335.969 500.459 286.475C506.821 301.548 503.133 342.685 489.07 405.073C605.211 273.777 546.794 177.165 506.647 113.749Z" fill="#AC8F69"/>
<path d="M220.247 281.265C243.072 331.023 219.605 457.039 404.392 449.478C390.996 439.357 342.151 414.434 326.935 381.262C342.968 390.903 397.902 426.892 437.576 427.204C381.437 285.538 393.731 326.199 220.247 281.265Z" fill="#AC8F69"/>
<path d="M120.915 609.505C183.629 600.984 304.93 663.536 416.815 497.652C396.226 507.005 341.851 539.129 287.047 546.21C308.425 535.361 364.177 502.947 416.17 460.088C301.187 445.661 284.553 436.516 120.915 609.505Z" fill="#AC8F69"/>
<path d="M555.653 515.271C750.629 567.886 708.675 505.958 924.196 440.047C823.312 358.124 689.545 280.45 502.653 414.194C535.535 409.946 619.353 386.567 693.802 421.708C651.205 428.885 554.663 422.115 476.089 466.569C461.905 493.5 475.532 576.238 503.301 665.097C471.019 633.293 446.689 566.997 429.151 505.261C402.933 613.226 367.945 743.658 602.381 855.177C582.779 779.903 668.444 615.315 555.653 515.271Z" fill="#AC8F69"/>
</svg>
