<svg width="119" height="119" viewBox="0 0 119 119" fill="none" xmlns="http://www.w3.org/2000/svg">
<circle cx="59.5" cy="59.5" r="59.5" fill="#AC8F69"/>
<path d="M69.8041 46.1745L68.0222 43.6953L56.1687 52.3724L52.14 47.569L49.8158 49.5833L55.7038 56.556L69.8041 46.1745Z" fill="#F6F0E4"/>
<path d="M40.3639 87.0033L45.2448 94.9831L56.4785 72.8255C56.8885 73.3215 57.3955 73.7284 57.9683 74.0215C58.5412 74.3146 59.1678 74.4876 59.8099 74.5299C60.452 74.4876 61.0786 74.3146 61.6515 74.0215C62.2243 73.7284 62.7313 73.3215 63.1413 72.8255L74.375 94.9831L79.2559 87.0033L88.6302 87.778L76.6992 64.3034L77.3965 64.1484C78.946 63.8385 80.7279 63.3737 81.5801 61.9017C82.4323 60.4297 81.89 58.7253 81.4251 57.2533C81.1244 56.5421 80.9664 55.7787 80.9603 55.0065C81.3462 54.3779 81.8453 53.8262 82.4323 53.3796C83.5944 52.2949 84.9115 51.0553 84.9115 49.2734C84.9115 47.4915 83.5944 46.252 82.4323 45.1673C81.8731 44.7136 81.4006 44.1624 81.0378 43.5404C81.0439 42.7682 81.2018 42.0048 81.5026 41.2936C81.9674 39.8216 82.5098 38.1172 81.6575 36.6452C80.8053 35.1732 79.0234 34.7858 77.474 34.3984C76.739 34.2998 76.0293 34.0632 75.3822 33.7012C75.0201 33.054 74.7835 32.3443 74.6849 31.6094C74.2975 30.0599 73.9102 28.278 72.4382 27.4258C70.9662 26.5736 69.2617 27.1159 67.7897 27.5807C67.0785 27.8815 66.3151 28.0394 65.543 28.0456C64.9143 27.6597 64.3627 27.1606 63.916 26.5736C62.8314 25.4889 61.5918 24.1719 59.8099 24.1719C58.028 24.1719 56.7884 25.4889 55.7038 26.651C55.2501 27.2103 54.6989 27.6827 54.0768 28.0456C53.3047 28.0394 52.5413 27.8815 51.8301 27.5807C50.3581 27.1159 48.6536 26.5736 47.1816 27.4258C45.7096 28.278 45.3223 30.1374 45.0124 31.6868C44.9137 32.4218 44.6772 33.1315 44.3151 33.7786C43.668 34.1407 42.9583 34.3773 42.2233 34.4759C40.6738 34.7858 38.8919 35.2507 38.0397 36.7227C37.1875 38.1947 37.7298 39.8991 38.1947 41.3711C38.4954 42.0823 38.6534 42.8457 38.6595 43.6178C38.2967 44.2399 37.8242 44.7911 37.265 45.2448C36.1029 46.3294 34.7858 47.569 34.7858 49.3509C34.7858 51.1328 36.1029 52.3724 37.265 53.457C37.852 53.9037 38.3511 54.4553 38.737 55.084C38.6721 55.8403 38.4617 56.5769 38.1172 57.2533C37.6523 58.7253 37.11 60.4297 37.9622 61.9017C38.8145 63.3737 40.5964 63.7611 42.1458 64.1484L42.8431 64.3034L30.9896 87.778L40.3639 87.0033ZM45.0124 88.6302L41.9909 83.7493L36.2578 84.2142L45.0124 67.015C45.3223 68.5645 45.7871 70.2689 47.2591 71.1211C48.7311 71.9733 50.4355 71.431 51.9076 70.9661C52.6187 70.6654 53.3821 70.5074 54.1543 70.5013L45.0124 88.6302ZM77.6289 83.7493L74.6074 88.6302L65.4655 70.5788C66.2376 70.5849 67.0011 70.7429 67.7122 71.0436C69.1842 71.5085 70.8887 72.0508 72.3607 71.1986C73.8327 70.3464 74.2201 68.6419 74.6074 67.0925L83.362 84.2142L77.6289 83.7493ZM40.6738 60.3522C40.5189 60.0423 40.9062 58.8027 41.0612 58.1055C41.2161 57.4082 41.9134 55.4714 41.526 54.1543C41.1387 52.8372 40.209 51.985 39.2018 51.0553C38.1947 50.1257 37.6523 49.6608 37.6523 49.2734C37.6523 48.8861 38.582 48.0339 39.2018 47.4915C39.8216 46.9492 41.2161 45.6322 41.526 44.3926C41.8359 43.153 41.4486 41.681 41.0612 40.4414C40.6738 39.2018 40.4414 38.5046 40.6738 38.2721C40.9062 38.0397 42.1458 37.6523 42.8431 37.4974C43.5404 37.3424 45.5547 36.8776 46.4844 35.9479C47.4141 35.0182 47.724 33.6237 48.0339 32.3066C48.3438 30.9896 48.4987 30.2923 48.8086 30.1374C49.1185 29.9824 50.3581 30.3698 50.9779 30.5247C51.5977 30.6797 53.612 31.377 54.929 30.9896C56.2461 30.6022 57.0983 29.6725 58.028 28.6654C58.9577 27.6582 59.4225 27.1159 59.8099 27.1159C60.1973 27.1159 61.0495 28.0456 61.5918 28.6654C62.1341 29.2852 63.4512 30.6797 64.6908 30.9896C65.9303 31.2995 67.4023 30.9121 68.6419 30.5247C69.8815 30.1374 70.5788 29.9049 70.8112 30.1374C71.0436 30.3698 71.431 31.6094 71.5859 32.3066C71.7409 33.0039 72.2057 35.0182 73.1354 35.9479C74.0651 36.8776 75.4596 37.1875 76.7767 37.4974C78.0938 37.8073 78.7135 37.9622 78.946 38.2721C79.1784 38.582 78.7135 39.8216 78.5586 40.5189C78.4036 41.2161 77.7064 43.153 78.0938 44.4701C78.4811 45.7871 79.4108 46.6393 80.418 47.569C81.4251 48.4987 81.9674 48.9635 81.9674 49.3509C81.9674 49.7383 81.0378 50.5905 80.418 51.1328C79.7982 51.6751 78.4036 52.9922 78.0938 54.2318C77.7839 55.4714 78.1712 56.9434 78.5586 58.1829C78.946 59.4225 79.1784 60.1198 78.946 60.3522C78.7135 60.5846 77.474 60.972 76.7767 61.127C76.0794 61.2819 74.0651 61.7467 73.1354 62.6764C72.2057 63.6061 71.8958 65.0007 71.5859 66.3177C71.276 67.6348 71.1211 68.332 70.8112 68.487C70.5013 68.6419 69.2617 68.2546 68.6419 68.0996C68.0221 67.9447 66.0078 67.2474 64.6908 67.6348C63.3737 68.0221 62.5215 68.9518 61.5918 69.959C60.6621 70.9661 60.1973 71.5085 59.8099 71.5085C59.4225 71.5085 58.5703 70.5788 58.028 69.959C57.4857 69.3392 56.1686 67.9447 54.929 67.6348L53.9219 67.4798C52.9152 67.539 51.923 67.7479 50.9779 68.0996C50.2806 68.332 49.041 68.7194 48.7311 68.487C48.4212 68.2546 48.1113 67.015 47.9564 66.3177C47.8014 65.6204 47.3366 63.6061 46.4069 62.6764C45.4772 61.7467 44.0827 61.4369 42.7656 61.127C41.4486 60.8171 40.9062 60.6621 40.6738 60.3522Z" fill="#F6F0E4"/>
</svg>
