<svg width="119" height="119" viewBox="0 0 119 119" fill="none" xmlns="http://www.w3.org/2000/svg">
<circle cx="59.5" cy="59.5" r="59.5" fill="#AC8F69"/>
<path fill-rule="evenodd" clip-rule="evenodd" d="M94.2812 32.6588C94.2812 31.7373 93.5334 30.9895 92.612 30.9895H25.8411C24.9197 30.9895 24.1719 31.7373 24.1719 32.6588V86.0754C24.1719 86.9969 24.9197 87.7447 25.8411 87.7447H92.612C93.5334 87.7447 94.2812 86.9969 94.2812 86.0754V32.6588ZM90.9427 34.328V84.4062H27.5104V34.328H90.9427ZM49.2109 71.052H35.8568C34.9353 71.052 34.1875 71.7998 34.1875 72.7213C34.1875 73.6427 34.9353 74.3905 35.8568 74.3905H49.2109C50.1324 74.3905 50.8802 73.6427 50.8802 72.7213C50.8802 71.7998 50.1324 71.052 49.2109 71.052ZM67.5729 59.8946V72.7213C67.5729 73.2988 67.8734 73.8364 68.3642 74.1402C68.8583 74.444 69.4725 74.474 69.99 74.2136L75.9193 71.249L81.8485 74.2136C82.366 74.474 82.9803 74.444 83.4744 74.1402C83.9652 73.8364 84.2656 73.2988 84.2656 72.7213V59.8946C85.3206 58.3088 85.9349 56.4058 85.9349 54.3593C85.9349 48.8307 81.4479 44.3437 75.9193 44.3437C70.3906 44.3437 65.9036 48.8307 65.9036 54.3593C65.9036 56.4058 66.5179 58.3088 67.5729 59.8946ZM70.9115 63.0328V70.0204L75.1714 67.8904C75.6422 67.6533 76.1964 67.6533 76.6671 67.8904L80.9271 70.0204V63.0328C79.4548 63.8875 77.7421 64.3749 75.9193 64.3749C74.0964 64.3749 72.3838 63.8875 70.9115 63.0328ZM59.2266 64.3749H35.8568C34.9353 64.3749 34.1875 65.1227 34.1875 66.0442C34.1875 66.9656 34.9353 67.7135 35.8568 67.7135H59.2266C60.148 67.7135 60.8958 66.9656 60.8958 66.0442C60.8958 65.1227 60.148 64.3749 59.2266 64.3749ZM75.9193 47.6822C79.605 47.6822 82.5964 50.6735 82.5964 54.3593C82.5964 58.045 79.605 61.0364 75.9193 61.0364C72.2335 61.0364 69.2422 58.045 69.2422 54.3593C69.2422 50.6735 72.2335 47.6822 75.9193 47.6822ZM59.2266 57.6978H35.8568C34.9353 57.6978 34.1875 58.4457 34.1875 59.3671C34.1875 60.2885 34.9353 61.0364 35.8568 61.0364H59.2266C60.148 61.0364 60.8958 60.2885 60.8958 59.3671C60.8958 58.4457 60.148 57.6978 59.2266 57.6978ZM59.2266 51.0208H35.8568C34.9353 51.0208 34.1875 51.7686 34.1875 52.69C34.1875 53.6115 34.9353 54.3593 35.8568 54.3593H59.2266C60.148 54.3593 60.8958 53.6115 60.8958 52.69C60.8958 51.7686 60.148 51.0208 59.2266 51.0208ZM59.2266 44.3437H35.8568C34.9353 44.3437 34.1875 45.0915 34.1875 46.0129C34.1875 46.9344 34.9353 47.6822 35.8568 47.6822H59.2266C60.148 47.6822 60.8958 46.9344 60.8958 46.0129C60.8958 45.0915 60.148 44.3437 59.2266 44.3437Z" fill="#F6F0E4"/>
</svg>
