<svg width="119" height="119" viewBox="0 0 119 119" fill="none" xmlns="http://www.w3.org/2000/svg">
<circle cx="59.5" cy="59.5" r="59.5" fill="#AC8F69"/>
<path d="M30.746 87.1321H59.2415V92.8528C59.2415 93.1549 59.3611 93.4455 59.5754 93.6598C59.7897 93.873 60.0792 93.9927 60.3813 93.9927L92.2973 93.971C92.9264 93.971 93.4359 93.4604 93.4359 92.8312V65.4756C93.4359 62.9612 91.3911 60.9163 88.8767 60.9163C87.5078 60.9163 86.2938 61.5341 85.4572 62.4916C84.6206 61.5341 83.4067 60.9163 82.0378 60.9163C81.2034 60.9163 80.4318 61.158 79.7581 61.5501V26.7218C79.7581 26.0927 79.2486 25.582 78.6183 25.582H38.7248C38.6997 25.582 38.6769 25.5946 38.653 25.5968C38.5526 25.6037 38.4558 25.6231 38.36 25.655C38.3235 25.6675 38.2882 25.6766 38.2529 25.6926C38.1321 25.7484 38.0169 25.818 37.9189 25.916L29.9402 33.8947C29.8422 33.9927 29.7726 34.1079 29.7168 34.2287C29.7008 34.264 29.6917 34.2982 29.6792 34.3347C29.6461 34.4304 29.6267 34.5284 29.6199 34.6299C29.6188 34.655 29.6062 34.6766 29.6062 34.7006V85.9923C29.6062 86.6215 30.1157 87.1321 30.746 87.1321ZM82.0378 63.196C83.295 63.196 84.3174 64.2184 84.3174 65.4756V74.5941H86.597V65.4756C86.597 64.2184 87.6195 63.196 88.8767 63.196C90.1339 63.196 91.1563 64.2184 91.1563 65.4756V91.6914L61.5211 91.7119V80.8631L63.8007 79.1523V82.5728H66.0803V51.7978C66.0803 50.5406 67.1028 49.5182 68.36 49.5182C69.6172 49.5182 70.6396 50.5406 70.6396 51.7978V65.4756V74.5941H72.9192V65.4756C72.9192 64.2184 73.9417 63.196 75.1989 63.196C76.4561 63.196 77.4785 64.2184 77.4785 65.4756V74.5941H79.7581V65.4756C79.7581 64.2184 80.7806 63.196 82.0378 63.196ZM77.4785 61.5501C76.8049 61.158 76.0332 60.9163 75.1989 60.9163C74.3645 60.9163 73.5929 61.158 72.9192 61.5501V51.7978C72.9192 49.2834 70.8744 47.2385 68.36 47.2385C65.8455 47.2385 63.8007 49.2834 63.8007 51.7978V76.3004L59.6962 79.3814C59.4101 79.5968 59.2415 79.9353 59.2415 80.2932V84.8525H31.8859V35.8404H38.7248C39.3551 35.8404 39.8646 35.3297 39.8646 34.7006V27.8617H77.4785V61.5501ZM37.5849 29.4734V33.5607H33.4976L37.5849 29.4734Z" fill="#F6F0E4"/>
<path d="M35.3053 39.2598C34.675 39.2598 34.1655 39.7704 34.1655 40.3996V49.5181C34.1655 50.1473 34.675 50.6579 35.3053 50.6579H44.4238C45.0542 50.6579 45.5637 50.1473 45.5637 49.5181V40.3996C45.5637 39.7704 45.0542 39.2598 44.4238 39.2598H35.3053ZM43.284 48.3783H36.4451V41.5394H43.284V48.3783Z" fill="#F6F0E4"/>
<path d="M44.4238 54.0776H35.3053C34.675 54.0776 34.1655 54.5883 34.1655 55.2175V64.336C34.1655 64.9652 34.675 65.4758 35.3053 65.4758H44.4238C45.0542 65.4758 45.5637 64.9652 45.5637 64.336V55.2175C45.5637 54.5883 45.0542 54.0776 44.4238 54.0776ZM43.284 63.1962H36.4451V56.3573H43.284V63.1962Z" fill="#F6F0E4"/>
<path d="M44.4238 68.8953H35.3053C34.675 68.8953 34.1655 69.4059 34.1655 70.0351V79.1536C34.1655 79.7828 34.675 80.2934 35.3053 80.2934H44.4238C45.0542 80.2934 45.5637 79.7828 45.5637 79.1536V70.0351C45.5637 69.4059 45.0542 68.8953 44.4238 68.8953ZM43.284 78.0138H36.4451V71.1749H43.284V78.0138Z" fill="#F6F0E4"/>
<path d="M61.5211 43.8193H47.8433V46.099H61.5211V43.8193Z" fill="#F6F0E4"/>
<path d="M61.5211 58.6367H47.8433V60.9164H61.5211V58.6367Z" fill="#F6F0E4"/>
<path d="M52.4026 73.4543H47.8433V75.734H52.4026V73.4543Z" fill="#F6F0E4"/>
<path d="M56.9618 73.4543H54.6822V75.734H56.9618V73.4543Z" fill="#F6F0E4"/>
<path d="M61.5211 73.4543H59.2415V75.734H61.5211V73.4543Z" fill="#F6F0E4"/>
</svg>
