<svg width="84" height="49" viewBox="0 0 84 49" fill="none" xmlns="http://www.w3.org/2000/svg">
<path d="M83.2899 28.1985C82.521 28.6777 81.899 28.5345 81.416 27.7669C79.396 24.3277 76.6821 20.7911 73.2691 17.16C69.8572 13.528 66.2753 10.4706 62.5253 7.9819C53.1065 1.77167 44.9846 1.05579 38.1578 5.83129C34.6978 8.22251 32.8729 12.1897 32.6779 17.7347C38.6398 17.4454 44.6966 18.8811 50.8465 22.032C53.5405 23.3723 55.4135 24.4232 56.4704 25.1868C58.8734 26.9079 60.1714 28.8686 60.3644 31.0649C60.7504 35.0818 59.3534 37.8031 56.1824 39.2379C53.3965 40.3843 50.0325 40.3385 46.0886 39.0937C42.0517 37.8538 38.4948 35.7042 35.4178 32.6419C32.3429 29.49 30.6119 25.8579 30.2269 21.7466C30.1329 21.3658 30.0819 20.983 30.0819 20.6002C22.779 21.7466 16.9142 25.7138 12.4912 32.4977C9.99128 36.2262 8.31031 39.3333 7.44433 41.818C9.2713 40.1924 11.9632 38.4743 15.5192 36.6567C16.2902 36.1785 16.8892 36.3475 17.3231 37.1598C17.7541 37.9712 17.5371 38.5727 16.6732 38.9515C11.0033 42.0109 7.54233 44.8307 6.29135 47.4118V47.6962C6.29135 48.6546 5.85935 49.0832 4.99337 48.9867C4.60938 48.9867 4.27238 48.8435 3.98339 48.5582C3.2154 48.3673 2.88041 47.888 2.97441 47.1244C3.4554 42.2505 2.63741 37.4691 0.523449 32.786C0.140456 31.928 0.357455 31.3304 1.17144 30.9934C1.98943 30.6623 2.54141 30.876 2.82941 31.6396C4.17838 34.4137 5.04237 37.0873 5.42536 39.6684C6.38834 37.3726 7.97332 34.5071 10.1833 31.0649C15.1822 23.418 21.8161 19.072 30.0809 18.0191C30.1799 11.4231 32.3889 6.59886 36.7148 3.54048C44.4057 -1.81269 53.4905 -1.09482 63.9673 5.6901C67.9092 8.27123 71.6092 11.4738 75.0711 15.2948C78.629 19.1207 81.512 22.7996 83.7219 26.3342C84.2039 27.1028 84.0589 27.7212 83.2899 28.1985ZM32.8229 21.4623C33.2089 24.9024 34.7468 28.0105 37.4388 30.7796C40.1297 33.5526 43.2537 35.4626 46.8106 36.5146C50.1765 37.661 52.9165 37.7584 55.0295 36.8009C57.1454 35.9419 58.0554 34.1273 57.7684 31.3533C57.5764 29.9195 56.6154 28.5803 54.8845 27.3384C54.0195 26.6722 52.2885 25.669 49.6936 24.3287C43.8327 21.4632 38.2068 20.1727 32.8229 20.457V21.4623Z" fill="#AC8F69"/>
</svg>
